# Blender v3.2.1 OBJ File: ''
# www.blender.org
mtllib floor.mtl
o sponza_117
v 12.961473 -0.250639 57.402962
v 130.219086 -0.250639 57.402985
v 130.219086 -0.250599 -64.336182
v -25.435677 -0.250639 57.402954
v -142.852005 -0.250639 57.402943
v -6.334201 -0.250599 -64.383659
v -142.852005 -0.250599 -64.431152
vt 2.621700 5.952500
vt -1.890500 5.952500
vt -1.890500 1.267900
vt 4.099200 5.952500
vt 8.617500 5.952500
vt 3.364200 1.266100
vt 8.617500 1.264200
vn -0.0000 1.0000 0.0000
usemtl floor
s off
f 1/1/1 2/2/1 3/3/1
f 1/1/1 3/3/1 4/4/1
f 5/5/1 4/4/1 3/3/1
f 5/5/1 3/3/1 6/6/1
f 7/7/1 5/5/1 6/6/1
